<?xml version="1.0" encoding="UTF-8" standalone="no"?>
<!DOCTYPE svg PUBLIC "-//W3C//DTD SVG 1.1//EN"
 "http://www.w3.org/Graphics/SVG/1.1/DTD/svg11.dtd">
<!-- Generated by graphviz version 2.43.0 (0)
 -->
<!-- Title: %3 Pages: 1 -->
<svg width="853pt" height="127pt"
 viewBox="0.00 0.00 852.99 127.00" xmlns="http://www.w3.org/2000/svg" xmlns:xlink="http://www.w3.org/1999/xlink">
<g id="graph0" class="graph" transform="scale(1 1) rotate(0) translate(4 123)">
<title>%3</title>
<polygon fill="white" stroke="transparent" points="-4,4 -4,-123 848.99,-123 848.99,4 -4,4"/>
<!-- 137613927614112 -->
<g id="node1" class="node">
<title>137613927614112</title>
<polygon fill="none" stroke="black" points="352.3,-27.5 352.3,-63.5 544.3,-63.5 544.3,-27.5 352.3,-27.5"/>
<text text-anchor="middle" x="365.3" y="-43" font-family="Times,serif" font-size="10.00">@</text>
<polyline fill="none" stroke="black" points="378.3,-27.5 378.3,-63.5 "/>
<text text-anchor="middle" x="421.3" y="-43" font-family="Times,serif" font-size="10.00">data: [2.1769]</text>
<polyline fill="none" stroke="black" points="464.3,-27.5 464.3,-63.5 "/>
<text text-anchor="middle" x="504.3" y="-43" font-family="Times,serif" font-size="10.00">grad: 0.0000</text>
</g>
<!-- 137613927614304+ -->
<g id="node5" class="node">
<title>137613927614304+</title>
<ellipse fill="none" stroke="black" cx="599.14" cy="-72.5" rx="18.7" ry="18.7"/>
<text text-anchor="middle" x="599.14" y="-68.8" font-family="Times,serif" font-size="14.00">+</text>
</g>
<!-- 137613927614112&#45;&gt;137613927614304+ -->
<g id="edge5" class="edge">
<title>137613927614112&#45;&gt;137613927614304+</title>
<path fill="none" stroke="black" d="M544.41,-62.75C553.7,-64.44 562.53,-66.04 570.24,-67.44"/>
<polygon fill="black" stroke="black" points="569.87,-70.93 580.34,-69.27 571.12,-64.04 569.87,-70.93"/>
</g>
<!-- 137613927614112@ -->
<g id="node2" class="node">
<title>137613927614112@</title>
<ellipse fill="none" stroke="black" cx="296.15" cy="-45.5" rx="20.3" ry="20.3"/>
<text text-anchor="middle" x="296.15" y="-41.8" font-family="Times,serif" font-size="14.00">@</text>
</g>
<!-- 137613927614112@&#45;&gt;137613927614112 -->
<g id="edge1" class="edge">
<title>137613927614112@&#45;&gt;137613927614112</title>
<path fill="none" stroke="black" d="M316.47,-45.5C323.64,-45.5 332.37,-45.5 341.88,-45.5"/>
<polygon fill="black" stroke="black" points="342.03,-49 352.03,-45.5 342.03,-42 342.03,-49"/>
</g>
<!-- 137613976286448 -->
<g id="node3" class="node">
<title>137613976286448</title>
<polygon fill="none" stroke="black" points="359.3,-82.5 359.3,-118.5 537.3,-118.5 537.3,-82.5 359.3,-82.5"/>
<text text-anchor="middle" x="369.3" y="-98" font-family="Times,serif" font-size="10.00"> </text>
<polyline fill="none" stroke="black" points="379.3,-82.5 379.3,-118.5 "/>
<text text-anchor="middle" x="418.3" y="-98" font-family="Times,serif" font-size="10.00">data: 0.5958</text>
<polyline fill="none" stroke="black" points="457.3,-82.5 457.3,-118.5 "/>
<text text-anchor="middle" x="497.3" y="-98" font-family="Times,serif" font-size="10.00">grad: 0.0000</text>
</g>
<!-- 137613976286448&#45;&gt;137613927614304+ -->
<g id="edge4" class="edge">
<title>137613976286448&#45;&gt;137613927614304+</title>
<path fill="none" stroke="black" d="M537.6,-83.89C549.43,-81.66 560.77,-79.53 570.37,-77.72"/>
<polygon fill="black" stroke="black" points="571.23,-81.12 580.41,-75.84 569.94,-74.24 571.23,-81.12"/>
</g>
<!-- 137613927614304 -->
<g id="node4" class="node">
<title>137613927614304</title>
<polygon fill="none" stroke="black" points="653.99,-54.5 653.99,-90.5 844.99,-90.5 844.99,-54.5 653.99,-54.5"/>
<text text-anchor="middle" x="666.49" y="-70" font-family="Times,serif" font-size="10.00">+</text>
<polyline fill="none" stroke="black" points="678.99,-54.5 678.99,-90.5 "/>
<text text-anchor="middle" x="721.99" y="-70" font-family="Times,serif" font-size="10.00">data: [2.7727]</text>
<polyline fill="none" stroke="black" points="764.99,-54.5 764.99,-90.5 "/>
<text text-anchor="middle" x="804.99" y="-70" font-family="Times,serif" font-size="10.00">grad: 0.0000</text>
</g>
<!-- 137613927614304+&#45;&gt;137613927614304 -->
<g id="edge2" class="edge">
<title>137613927614304+&#45;&gt;137613927614304</title>
<path fill="none" stroke="black" d="M618.04,-72.5C625.13,-72.5 633.89,-72.5 643.48,-72.5"/>
<polygon fill="black" stroke="black" points="643.75,-76 653.75,-72.5 643.75,-69 643.75,-76"/>
</g>
<!-- 137613976283040 -->
<g id="node6" class="node">
<title>137613976283040</title>
<polygon fill="none" stroke="black" points="0,-55.5 0,-91.5 240,-91.5 240,-55.5 0,-55.5"/>
<text text-anchor="middle" x="10" y="-71" font-family="Times,serif" font-size="10.00"> </text>
<polyline fill="none" stroke="black" points="20,-55.5 20,-91.5 "/>
<text text-anchor="middle" x="90" y="-71" font-family="Times,serif" font-size="10.00">data: [[0.5812], [0.7979]]</text>
<polyline fill="none" stroke="black" points="160,-55.5 160,-91.5 "/>
<text text-anchor="middle" x="200" y="-71" font-family="Times,serif" font-size="10.00">grad: 0.0000</text>
</g>
<!-- 137613976283040&#45;&gt;137613927614112@ -->
<g id="edge3" class="edge">
<title>137613976283040&#45;&gt;137613927614112@</title>
<path fill="none" stroke="black" d="M233.26,-55.45C245.21,-53.53 256.48,-51.72 266.03,-50.18"/>
<polygon fill="black" stroke="black" points="266.72,-53.62 276.04,-48.57 265.61,-46.7 266.72,-53.62"/>
</g>
<!-- 137613976289232 -->
<g id="node7" class="node">
<title>137613976289232</title>
<polygon fill="none" stroke="black" points="7.5,-0.5 7.5,-36.5 232.5,-36.5 232.5,-0.5 7.5,-0.5"/>
<text text-anchor="middle" x="17.5" y="-16" font-family="Times,serif" font-size="10.00"> </text>
<polyline fill="none" stroke="black" points="27.5,-0.5 27.5,-36.5 "/>
<text text-anchor="middle" x="90" y="-16" font-family="Times,serif" font-size="10.00">data: [1.0000, 2.0000]</text>
<polyline fill="none" stroke="black" points="152.5,-0.5 152.5,-36.5 "/>
<text text-anchor="middle" x="192.5" y="-16" font-family="Times,serif" font-size="10.00">grad: 0.0000</text>
</g>
<!-- 137613976289232&#45;&gt;137613927614112@ -->
<g id="edge6" class="edge">
<title>137613976289232&#45;&gt;137613927614112@</title>
<path fill="none" stroke="black" d="M232.77,-35.83C244.9,-37.71 256.33,-39.48 266.01,-40.98"/>
<polygon fill="black" stroke="black" points="265.72,-44.48 276.14,-42.55 266.8,-37.56 265.72,-44.48"/>
</g>
</g>
</svg>
